<svg width="79" height="72" viewBox="0 0 79 72" fill="none" xmlns="http://www.w3.org/2000/svg">
<path d="M51.4537 15.0419C51.5951 14.2465 52.2867 13.667 53.0946 13.667H66.9683C67.7762 13.667 68.4678 14.2465 68.6092 15.0419L75.0315 51.167L76.3832 66.7116C76.5525 68.6591 75.0173 70.3337 73.0624 70.3337H47.0006C45.0457 70.3337 43.5104 68.6591 43.6798 66.7116L45.0315 51.167L51.4537 15.0419Z" fill="#DF8D12"/>
<path fill-rule="evenodd" clip-rule="evenodd" d="M43.3773 50.9482L49.8126 14.7499C50.0954 13.159 51.4786 12 53.0944 12H66.9681C68.584 12 69.9671 13.159 70.25 14.7499L76.6852 50.9482L78.0434 66.5669C78.2974 69.4882 75.9945 72 73.0622 72H47.0004C44.068 72 41.7651 69.4882 42.0192 66.5669L43.3773 50.9482ZM53.0944 13.6667C52.2865 13.6667 51.5949 14.2461 51.4535 15.0416L45.0313 51.1667L43.6796 66.7112C43.5102 68.6588 45.0455 70.3333 47.0004 70.3333H73.0622C75.0171 70.3333 76.5523 68.6588 76.383 66.7112L75.0313 51.1667L68.609 15.0416C68.4676 14.2461 67.776 13.6667 66.9681 13.6667H53.0944Z" fill="#5B3303"/>
<path d="M47.0148 70.3333H73.0479C75.008 70.3333 76.545 68.6503 76.3675 66.6982L75.3069 55.0315C75.1508 53.3146 73.7113 52 71.9873 52H48.0754C46.3514 52 44.9118 53.3146 44.7557 55.0316L43.6951 66.6982C43.5177 68.6503 45.0547 70.3333 47.0148 70.3333Z" fill="#FFB423"/>
<path d="M44.7699 55.0487L43.7812 66.5833L69.1979 52H48.0911C46.3605 52 44.9177 53.3244 44.7699 55.0487Z" fill="#FFC149"/>
<path d="M54.1978 15.333L48.3645 48.6663L65.8645 15.333H54.1978Z" fill="#E9981F"/>
<path fill-rule="evenodd" clip-rule="evenodd" d="M53.5016 14.5115C53.9555 14.5871 54.2622 15.0165 54.1865 15.4705L48.3532 50.4705C48.2775 50.9244 47.8482 51.2311 47.3942 51.1555C46.9402 51.0798 46.6336 50.6504 46.7092 50.1965L52.5426 15.1965C52.6182 14.7425 53.0476 14.4358 53.5016 14.5115Z" fill="#FFC351"/>
<path fill-rule="evenodd" clip-rule="evenodd" d="M48.9182 42.0115C49.3722 42.0871 49.6789 42.5165 49.6032 42.9705L48.3532 50.4705C48.2775 50.9244 47.8482 51.2311 47.3942 51.1555C46.9402 51.0798 46.6336 50.6504 46.7092 50.1965L47.9592 42.6965C48.0349 42.2425 48.4642 41.9358 48.9182 42.0115Z" fill="#FFD991"/>
<path fill-rule="evenodd" clip-rule="evenodd" d="M48.2314 54.4997C47.798 54.4997 47.4369 54.8319 47.4009 55.2638L47.1116 58.7355C47.0734 59.1942 46.6706 59.535 46.2119 59.4968C45.7533 59.4586 45.4125 59.0558 45.4507 58.5971L45.74 55.1254C45.848 53.8297 46.9311 52.833 48.2314 52.833H51.6978C52.158 52.833 52.5311 53.2061 52.5311 53.6663C52.5311 54.1266 52.158 54.4997 51.6978 54.4997H48.2314Z" fill="#FFFAED"/>
<path d="M68.3644 39.083C68.3644 39.7734 67.4317 40.333 66.2811 40.333C65.1305 40.333 64.1978 39.7734 64.1978 39.083C64.1978 38.3927 65.1305 37.833 66.2811 37.833C67.4317 37.833 68.3644 38.3927 68.3644 39.083Z" fill="#C17707"/>
<path d="M69.1978 33.6663C69.1978 34.1266 68.4516 34.4997 67.5312 34.4997C66.6107 34.4997 65.8645 34.1266 65.8645 33.6663C65.8645 33.2061 66.6107 32.833 67.5312 32.833C68.4516 32.833 69.1978 33.2061 69.1978 33.6663Z" fill="#C17707"/>
<path d="M66.6978 29.4993C66.6978 29.9596 65.9516 30.3327 65.0312 30.3327C64.1107 30.3327 63.3645 29.9596 63.3645 29.4993C63.3645 29.0391 64.1107 28.666 65.0312 28.666C65.9516 28.666 66.6978 29.0391 66.6978 29.4993Z" fill="#C17707"/>
<path d="M67.5312 24.0827C67.5312 24.3128 67.1581 24.4993 66.6978 24.4993C66.2376 24.4993 65.8645 24.3128 65.8645 24.0827C65.8645 23.8526 66.2376 23.666 66.6978 23.666C67.1581 23.666 67.5312 23.8526 67.5312 24.0827Z" fill="#C17707"/>
<path d="M69.1979 27.4157C69.1979 27.6458 68.8248 27.8324 68.3646 27.8324C67.9043 27.8324 67.5312 27.6458 67.5312 27.4157C67.5312 27.1856 67.9043 26.999 68.3646 26.999C68.8248 26.999 69.1979 27.1856 69.1979 27.4157Z" fill="#C17707"/>
<path d="M65.0312 32.4157C65.0312 32.6458 64.6581 32.8324 64.1978 32.8324C63.7376 32.8324 63.3645 32.6458 63.3645 32.4157C63.3645 32.1856 63.7376 31.999 64.1978 31.999C64.6581 31.999 65.0312 32.1856 65.0312 32.4157Z" fill="#C17707"/>
<path d="M70.0312 36.5827C70.0312 36.8128 69.6581 36.9993 69.1978 36.9993C68.7376 36.9993 68.3645 36.8128 68.3645 36.5827C68.3645 36.3526 68.7376 36.166 69.1978 36.166C69.6581 36.166 70.0312 36.3526 70.0312 36.5827Z" fill="#C17707"/>
<path d="M65.8644 35.7497C65.8644 35.9798 65.4913 36.1663 65.0311 36.1663C64.5708 36.1663 64.1978 35.9798 64.1978 35.7497C64.1978 35.5196 64.5708 35.333 65.0311 35.333C65.4913 35.333 65.8644 35.5196 65.8644 35.7497Z" fill="#C17707"/>
<path d="M71.6978 42.8324C71.6978 43.2926 70.9516 43.6657 70.0312 43.6657C69.1107 43.6657 68.3645 43.2926 68.3645 42.8324C68.3645 42.3721 69.1107 41.999 70.0312 41.999C70.9516 41.999 71.6978 42.3721 71.6978 42.8324Z" fill="#C17707"/>
<path d="M72.5312 68.249C72.5312 68.9394 71.9716 69.499 71.2812 69.499C70.5909 69.499 70.0312 68.9394 70.0312 68.249C70.0312 67.5587 70.5909 66.999 71.2812 66.999C71.9716 66.999 72.5312 67.5587 72.5312 68.249Z" fill="#FFC24B"/>
<path d="M75.0312 66.1663C75.0312 66.6266 74.6581 66.9997 74.1978 66.9997C73.7376 66.9997 73.3645 66.6266 73.3645 66.1663C73.3645 65.7061 73.7376 65.333 74.1978 65.333C74.6581 65.333 75.0312 65.7061 75.0312 66.1663Z" fill="#FFC24B"/>
<path d="M67.5311 68.6663C67.5311 69.1266 67.9042 69.4997 68.3644 69.4997C68.8247 69.4997 69.1978 69.1266 69.1978 68.6663C69.1978 68.2061 68.8247 67.833 68.3644 67.833C67.9042 67.833 67.5311 68.2061 67.5311 68.6663Z" fill="#FFC24B"/>
<path d="M70.8646 64.4993C70.8646 64.9596 71.2377 65.3327 71.6979 65.3327C72.1582 65.3327 72.5312 64.9596 72.5312 64.4993C72.5312 64.0391 72.1582 63.666 71.6979 63.666C71.2377 63.666 70.8646 64.0391 70.8646 64.4993Z" fill="#FFC24B"/>
<path d="M67.5313 65.749C67.5313 66.4394 68.0909 66.999 68.7813 66.999C69.4716 66.999 70.0312 66.4394 70.0312 65.749C70.0312 65.0587 69.4716 64.499 68.7813 64.499C68.0909 64.499 67.5313 65.0587 67.5313 65.749Z" fill="#FFC24B"/>
<path d="M63.3646 67.8324C63.3646 68.2926 63.7377 68.6657 64.1979 68.6657C64.6582 68.6657 65.0312 68.2926 65.0312 67.8324C65.0312 67.3721 64.6582 66.999 64.1979 66.999C63.7377 66.999 63.3646 67.3721 63.3646 67.8324Z" fill="#FFC24B"/>
<path d="M73.3646 61.9993C73.3646 62.4596 73.7377 62.8327 74.1979 62.8327C74.6582 62.8327 75.0312 62.4596 75.0312 61.9993C75.0312 61.5391 74.6582 61.166 74.1979 61.166C73.7377 61.166 73.3646 61.5391 73.3646 61.9993Z" fill="#FFC24B"/>
<path d="M9.45371 15.0419C9.59512 14.2465 10.2867 13.667 11.0946 13.667H24.9683C25.7762 13.667 26.4678 14.2465 26.6092 15.0419L33.0315 51.167L34.3832 66.7116C34.5525 68.6591 33.0173 70.3337 31.0624 70.3337H5.00057C3.04567 70.3337 1.51042 68.6591 1.67977 66.7116L3.03147 51.167L9.45371 15.0419Z" fill="#FCB326"/>
<path fill-rule="evenodd" clip-rule="evenodd" d="M1.37732 50.9482L7.81257 14.7499C8.0954 13.159 9.47857 12 11.0944 12H24.9681C26.584 12 27.9671 13.159 28.25 14.7499L34.6852 50.9482L36.0434 66.5669C36.2974 69.4882 33.9945 72 31.0622 72H5.00037C2.06802 72 -0.234857 69.4882 0.0191715 66.5669L1.37732 50.9482ZM11.0944 13.6667C10.2865 13.6667 9.59492 14.2461 9.45351 15.0416L3.03127 51.1667L1.67957 66.7112C1.51022 68.6588 3.04547 70.3333 5.00037 70.3333H31.0622C33.0171 70.3333 34.5523 68.6588 34.383 66.7112L33.0313 51.1667L26.609 15.0416C26.4676 14.2461 25.776 13.6667 24.9681 13.6667H11.0944Z" fill="#5B3303"/>
<path d="M5.01476 70.3333H31.0479C33.008 70.3333 34.545 68.6503 34.3675 66.6982L33.3069 55.0315C33.1508 53.3146 31.7113 52 29.9873 52H6.07536C4.35135 52 2.9118 53.3146 2.75572 55.0316L1.69511 66.6982C1.51765 68.6503 3.05465 70.3333 5.01476 70.3333Z" fill="#FFB423"/>
<path d="M12.1978 15.333L6.3645 48.6663L23.8645 15.333H12.1978Z" fill="#FFC555"/>
<path fill-rule="evenodd" clip-rule="evenodd" d="M11.5016 14.5115C11.9555 14.5871 12.2622 15.0165 12.1865 15.4705L6.35321 50.4705C6.27755 50.9244 5.84819 51.2311 5.39422 51.1555C4.94024 51.0798 4.63356 50.6504 4.70922 50.1965L10.5426 15.1965C10.6182 14.7425 11.0476 14.4358 11.5016 14.5115Z" fill="#FFD179"/>
<path fill-rule="evenodd" clip-rule="evenodd" d="M6.91822 42.0115C7.37219 42.0871 7.67887 42.5165 7.60321 42.9705L6.35321 50.4705C6.27755 50.9244 5.84819 51.2311 5.39422 51.1555C4.94024 51.0798 4.63356 50.6504 4.70922 50.1965L5.95922 42.6965C6.03488 42.2425 6.46424 41.9358 6.91822 42.0115Z" fill="#FFECC9"/>
<path d="M2.76994 55.0487L1.78125 66.5833L27.1979 52H6.09109C4.36049 52 2.91773 53.3244 2.76994 55.0487Z" fill="#FFC149"/>
<path fill-rule="evenodd" clip-rule="evenodd" d="M6.21106 54.4997C5.78191 54.4997 5.42294 54.8256 5.3816 55.2527L4.27735 66.6633C4.23302 67.1214 3.82572 67.4568 3.36762 67.4125C2.90953 67.3681 2.5741 66.9608 2.61844 66.5027L3.72268 55.0922C3.84669 53.8107 4.92362 52.833 6.21106 52.833H28.8646C29.3248 52.833 29.6979 53.2061 29.6979 53.6663C29.6979 54.1266 29.3248 54.4997 28.8646 54.4997H6.21106Z" fill="#FFE4A0"/>
<path fill-rule="evenodd" clip-rule="evenodd" d="M6.23136 54.4997C5.79796 54.4997 5.4369 54.8319 5.40091 55.2638L5.11159 58.7355C5.07337 59.1942 4.67057 59.535 4.21193 59.4968C3.75328 59.4586 3.41246 59.0558 3.45068 58.5971L3.74 55.1254C3.84798 53.8297 4.93114 52.833 6.23136 52.833H9.69781C10.158 52.833 10.5311 53.2061 10.5311 53.6663C10.5311 54.1266 10.158 54.4997 9.69781 54.4997H6.23136Z" fill="#FFFAED"/>
<path d="M30.5312 68.249C30.5312 68.9394 29.9716 69.499 29.2812 69.499C28.5909 69.499 28.0312 68.9394 28.0312 68.249C28.0312 67.5587 28.5909 66.999 29.2812 66.999C29.9716 66.999 30.5312 67.5587 30.5312 68.249Z" fill="#FFC24B"/>
<path d="M33.0312 66.1663C33.0312 66.6266 32.6581 66.9997 32.1978 66.9997C31.7376 66.9997 31.3645 66.6266 31.3645 66.1663C31.3645 65.7061 31.7376 65.333 32.1978 65.333C32.6581 65.333 33.0312 65.7061 33.0312 66.1663Z" fill="#FFC24B"/>
<path d="M25.5311 68.6663C25.5311 69.1266 25.9042 69.4997 26.3644 69.4997C26.8247 69.4997 27.1978 69.1266 27.1978 68.6663C27.1978 68.2061 26.8247 67.833 26.3644 67.833C25.9042 67.833 25.5311 68.2061 25.5311 68.6663Z" fill="#FFC24B"/>
<path d="M28.8646 64.4993C28.8646 64.9596 29.2377 65.3327 29.6979 65.3327C30.1582 65.3327 30.5312 64.9596 30.5312 64.4993C30.5312 64.0391 30.1582 63.666 29.6979 63.666C29.2377 63.666 28.8646 64.0391 28.8646 64.4993Z" fill="#FFC24B"/>
<path d="M25.5313 65.749C25.5313 66.4394 26.0909 66.999 26.7813 66.999C27.4716 66.999 28.0312 66.4394 28.0312 65.749C28.0312 65.0587 27.4716 64.499 26.7813 64.499C26.0909 64.499 25.5313 65.0587 25.5313 65.749Z" fill="#FFC24B"/>
<path d="M21.3646 67.8324C21.3646 68.2926 21.7377 68.6657 22.1979 68.6657C22.6582 68.6657 23.0312 68.2926 23.0312 67.8324C23.0312 67.3721 22.6582 66.999 22.1979 66.999C21.7377 66.999 21.3646 67.3721 21.3646 67.8324Z" fill="#FFC24B"/>
<path d="M31.3646 61.9993C31.3646 62.4596 31.7377 62.8327 32.1979 62.8327C32.6582 62.8327 33.0312 62.4596 33.0312 61.9993C33.0312 61.5391 32.6582 61.166 32.1979 61.166C31.7377 61.166 31.3646 61.5391 31.3646 61.9993Z" fill="#FFC24B"/>
<path d="M31.4537 3.04194C31.5951 2.24647 32.2867 1.66699 33.0946 1.66699H46.9683C47.7762 1.66699 48.4678 2.24647 48.6092 3.04194L55.0315 39.167L56.3832 54.7116C56.5525 56.6591 55.0173 58.3337 53.0624 58.3337H27.0006C25.0457 58.3337 23.5104 56.6591 23.6798 54.7116L25.0315 39.167L31.4537 3.04194Z" fill="#FCB326"/>
<path fill-rule="evenodd" clip-rule="evenodd" d="M23.3773 38.9482L29.8126 2.74989C30.0954 1.15896 31.4786 0 33.0944 0H46.9681C48.584 0 49.9671 1.15896 50.25 2.74989L56.6852 38.9482L58.0434 54.5669C58.2974 57.4882 55.9945 60 53.0622 60H27.0004C24.068 60 21.7651 57.4882 22.0192 54.5669L23.3773 38.9482ZM33.0944 1.66667C32.2865 1.66667 31.5949 2.24615 31.4535 3.04161L25.0313 39.1667L23.6796 54.7112C23.5102 56.6588 25.0455 58.3333 27.0004 58.3333H53.0622C55.0171 58.3333 56.5523 56.6588 56.383 54.7112L55.0313 39.1667L48.609 3.04161C48.4676 2.24615 47.776 1.66667 46.9681 1.66667H33.0944Z" fill="#5B3303"/>
<path d="M27.0148 58.3333H53.0479C55.008 58.3333 56.545 56.6503 56.3675 54.6982L55.3069 43.0315C55.1508 41.3146 53.7113 40 51.9873 40H28.0754C26.3514 40 24.9118 41.3146 24.7557 43.0316L23.6951 54.6982C23.5177 56.6503 25.0547 58.3333 27.0148 58.3333Z" fill="#FFCF23"/>
<path d="M34.1978 3.33301L28.3645 36.6663L45.8645 3.33301H34.1978Z" fill="#FFC555"/>
<path fill-rule="evenodd" clip-rule="evenodd" d="M33.5016 2.51147C33.9555 2.58713 34.2622 3.01649 34.1865 3.47046L28.3532 38.4705C28.2775 38.9244 27.8482 39.2311 27.3942 39.1555C26.9402 39.0798 26.6336 38.6504 26.7092 38.1965L32.5426 3.19646C32.6182 2.74249 33.0476 2.43581 33.5016 2.51147Z" fill="#FFD179"/>
<path fill-rule="evenodd" clip-rule="evenodd" d="M28.9182 30.0115C29.3722 30.0871 29.6789 30.5165 29.6032 30.9705L28.3532 38.4705C28.2775 38.9244 27.8482 39.2311 27.3942 39.1555C26.9402 39.0798 26.6336 38.6504 26.7092 38.1965L27.9592 30.6965C28.0349 30.2425 28.4642 29.9358 28.9182 30.0115Z" fill="#FFECC9"/>
<path d="M24.7699 43.0487L23.7812 54.5833L49.1979 40H28.0911C26.3605 40 24.9177 41.3244 24.7699 43.0487Z" fill="#FFDD65"/>
<path fill-rule="evenodd" clip-rule="evenodd" d="M28.2111 42.4997C27.7819 42.4997 27.4229 42.8256 27.3816 43.2527L26.2774 54.6633C26.233 55.1214 25.8257 55.4568 25.3676 55.4125C24.9095 55.3681 24.5741 54.9608 24.6184 54.5027L25.7227 43.0922C25.8467 41.8107 26.9236 40.833 28.2111 40.833H50.8646C51.3248 40.833 51.6979 41.2061 51.6979 41.6663C51.6979 42.1266 51.3248 42.4997 50.8646 42.4997H28.2111Z" fill="#FFF5A0"/>
<path fill-rule="evenodd" clip-rule="evenodd" d="M28.2314 42.4997C27.798 42.4997 27.4369 42.8319 27.4009 43.2638L27.1116 46.7355C27.0734 47.1942 26.6706 47.535 26.2119 47.4968C25.7533 47.4586 25.4125 47.0558 25.4507 46.5971L25.74 43.1254C25.848 41.8297 26.9311 40.833 28.2314 40.833H31.6978C32.158 40.833 32.5311 41.2061 32.5311 41.6663C32.5311 42.1266 32.158 42.4997 31.6978 42.4997H28.2314Z" fill="#FFFAED"/>
<path d="M48.3644 27.083C48.3644 27.7734 47.4317 28.333 46.2811 28.333C45.1305 28.333 44.1978 27.7734 44.1978 27.083C44.1978 26.3927 45.1305 25.833 46.2811 25.833C47.4317 25.833 48.3644 26.3927 48.3644 27.083Z" fill="#C48714"/>
<path d="M49.1978 21.6663C49.1978 22.1266 48.4516 22.4997 47.5312 22.4997C46.6107 22.4997 45.8645 22.1266 45.8645 21.6663C45.8645 21.2061 46.6107 20.833 47.5312 20.833C48.4516 20.833 49.1978 21.2061 49.1978 21.6663Z" fill="#C48714"/>
<path d="M46.6978 17.4993C46.6978 17.9596 45.9516 18.3327 45.0312 18.3327C44.1107 18.3327 43.3645 17.9596 43.3645 17.4993C43.3645 17.0391 44.1107 16.666 45.0312 16.666C45.9516 16.666 46.6978 17.0391 46.6978 17.4993Z" fill="#C48714"/>
<path d="M47.5312 12.0827C47.5312 12.3128 47.1581 12.4993 46.6978 12.4993C46.2376 12.4993 45.8645 12.3128 45.8645 12.0827C45.8645 11.8526 46.2376 11.666 46.6978 11.666C47.1581 11.666 47.5312 11.8526 47.5312 12.0827Z" fill="#C48714"/>
<path d="M49.1979 15.4157C49.1979 15.6458 48.8248 15.8324 48.3646 15.8324C47.9043 15.8324 47.5312 15.6458 47.5312 15.4157C47.5312 15.1856 47.9043 14.999 48.3646 14.999C48.8248 14.999 49.1979 15.1856 49.1979 15.4157Z" fill="#C48714"/>
<path d="M45.0312 20.4157C45.0312 20.6458 44.6581 20.8324 44.1978 20.8324C43.7376 20.8324 43.3645 20.6458 43.3645 20.4157C43.3645 20.1856 43.7376 19.999 44.1978 19.999C44.6581 19.999 45.0312 20.1856 45.0312 20.4157Z" fill="#C48714"/>
<path d="M50.0312 24.5827C50.0312 24.8128 49.6581 24.9993 49.1978 24.9993C48.7376 24.9993 48.3645 24.8128 48.3645 24.5827C48.3645 24.3526 48.7376 24.166 49.1978 24.166C49.6581 24.166 50.0312 24.3526 50.0312 24.5827Z" fill="#C48714"/>
<path d="M45.8644 23.7497C45.8644 23.9798 45.4913 24.1663 45.0311 24.1663C44.5708 24.1663 44.1978 23.9798 44.1978 23.7497C44.1978 23.5196 44.5708 23.333 45.0311 23.333C45.4913 23.333 45.8644 23.5196 45.8644 23.7497Z" fill="#C48714"/>
<path d="M51.6978 30.8324C51.6978 31.2926 50.9516 31.6657 50.0312 31.6657C49.1107 31.6657 48.3645 31.2926 48.3645 30.8324C48.3645 30.3721 49.1107 29.999 50.0312 29.999C50.9516 29.999 51.6978 30.3721 51.6978 30.8324Z" fill="#C48714"/>
<path d="M52.5312 56.249C52.5312 56.9394 51.9716 57.499 51.2812 57.499C50.5909 57.499 50.0312 56.9394 50.0312 56.249C50.0312 55.5587 50.5909 54.999 51.2812 54.999C51.9716 54.999 52.5312 55.5587 52.5312 56.249Z" fill="#FFDC81"/>
<path d="M55.0312 54.1663C55.0312 54.6266 54.6581 54.9997 54.1978 54.9997C53.7376 54.9997 53.3645 54.6266 53.3645 54.1663C53.3645 53.7061 53.7376 53.333 54.1978 53.333C54.6581 53.333 55.0312 53.7061 55.0312 54.1663Z" fill="#FFDC81"/>
<path d="M47.5311 56.6663C47.5311 57.1266 47.9042 57.4997 48.3644 57.4997C48.8247 57.4997 49.1978 57.1266 49.1978 56.6663C49.1978 56.2061 48.8247 55.833 48.3644 55.833C47.9042 55.833 47.5311 56.2061 47.5311 56.6663Z" fill="#FFDC81"/>
<path d="M50.8646 52.4993C50.8646 52.9596 51.2377 53.3327 51.6979 53.3327C52.1582 53.3327 52.5312 52.9596 52.5312 52.4993C52.5312 52.0391 52.1582 51.666 51.6979 51.666C51.2377 51.666 50.8646 52.0391 50.8646 52.4993Z" fill="#FFDC81"/>
<path d="M47.5313 53.749C47.5313 54.4394 48.0909 54.999 48.7813 54.999C49.4716 54.999 50.0312 54.4394 50.0312 53.749C50.0312 53.0587 49.4716 52.499 48.7813 52.499C48.0909 52.499 47.5313 53.0587 47.5313 53.749Z" fill="#FFDC81"/>
<path d="M43.3646 55.8324C43.3646 56.2926 43.7377 56.6657 44.1979 56.6657C44.6582 56.6657 45.0312 56.2926 45.0312 55.8324C45.0312 55.3721 44.6582 54.999 44.1979 54.999C43.7377 54.999 43.3646 55.3721 43.3646 55.8324Z" fill="#FFDC81"/>
<path d="M53.3646 49.9993C53.3646 50.4596 53.7377 50.8327 54.1979 50.8327C54.6582 50.8327 55.0312 50.4596 55.0312 49.9993C55.0312 49.5391 54.6582 49.166 54.1979 49.166C53.7377 49.166 53.3646 49.5391 53.3646 49.9993Z" fill="#FFDC81"/>
</svg>
