<svg width="53" height="79" viewBox="0 0 53 79" fill="none" xmlns="http://www.w3.org/2000/svg">
<path d="M0.999999 18.875C0.999999 18.6098 1.10536 18.3554 1.29289 18.1679L18.1679 1.29289C18.3554 1.10536 18.6098 1 18.875 1L33.875 1C34.1402 1 34.3946 1.10536 34.5821 1.29289L51.4571 18.1679C51.6446 18.3554 51.75 18.6098 51.75 18.875L51.75 60.125C51.75 60.3902 51.6446 60.6446 51.4571 60.8321L34.5821 77.7071C34.3946 77.8946 34.1402 78 33.875 78L18.875 78C18.6098 78 18.3554 77.8946 18.1679 77.7071L1.29289 60.8321C1.10535 60.6446 0.999997 60.3902 0.999997 60.125L0.999999 18.875Z" fill="#E96565" stroke="#60050F" stroke-width="2" stroke-linejoin="round"/>
<path d="M2 60.125L2 18.875L16.0625 23.5625L16.0625 55.4375L2 60.125Z" fill="#EE8BBB"/>
<path d="M18.875 2L2 18.875L16.0625 23.5625L26.375 11.375L33.875 2L18.875 2Z" fill="#FFC1DF"/>
<path d="M36.6875 55.4375L26.375 67.625L18.875 77L33.875 77L50.75 60.125L50.75 18.875L33.875 2L26.375 11.375L36.6875 23.5625L36.6875 55.4375Z" fill="#D74E67"/>
<path d="M50.75 18.875L50.75 60.125L36.6875 55.4375L36.6875 23.5625L50.75 18.875Z" fill="#AC2F6B"/>
<circle cx="47" cy="28.25" r="1.875" fill="#BE3778"/>
<circle cx="44.6562" cy="36.2188" r="1.40625" fill="#BE3778"/>
<circle cx="47.9375" cy="33.875" r="0.9375" fill="#BE3778"/>
<circle cx="43.25" cy="31.0625" r="0.9375" fill="#BE3778"/>
<circle cx="47.9375" cy="22.625" r="0.9375" fill="#BE3778"/>
<circle cx="47.9375" cy="45.125" r="0.9375" fill="#BE3778"/>
<circle cx="47.9375" cy="40.4375" r="0.9375" fill="#BE3778"/>
<path d="M16.0625 23.5625L16.0625 55.4375L26.375 67.625L36.6875 55.4814L36.6875 23.5625L26.375 11.375L16.0625 23.5625Z" fill="#FF6480"/>
<path d="M16.0625 55.4375L16.0625 23.5625L26.375 11.375L36.6875 23.5625L16.0625 55.4375Z" fill="#FF9BAD"/>
<path d="M26.375 14.1875L17.9375 24.5V44.1875" stroke="#FFD5E4" stroke-width="2" stroke-linecap="round" stroke-linejoin="round"/>
<path d="M3.875 21.6875V57.3125" stroke="#FFADD4" stroke-width="2" stroke-linecap="round" stroke-linejoin="round"/>
<path d="M5.75 17.9375L19.8125 3.875" stroke="#FFE7F2" stroke-width="2" stroke-linecap="round" stroke-linejoin="round"/>
<circle cx="43.7188" cy="62.4688" r="1.40625" fill="#B43B51"/>
<circle cx="34.3438" cy="71.8438" r="1.40625" fill="#B43B51"/>
<circle cx="38.0938" cy="68.0938" r="1.40625" fill="#B43B51"/>
<circle cx="33.875" cy="65.75" r="0.9375" fill="#B43B51"/>
<circle cx="40.4375" cy="65.75" r="0.9375" fill="#B43B51"/>
<circle cx="37.625" cy="62" r="1.875" fill="#B43B51"/>
</svg>
