<svg width="224" height="65" viewBox="0 0 224 65" fill="none" xmlns="http://www.w3.org/2000/svg">
<g filter="url(#filter0_ddd_1_95)">
<rect x="11" y="10" width="202" height="42" rx="21" fill="#FFAE02"/>
<rect x="11" y="10" width="202" height="42" rx="21" fill="url(#paint0_linear_1_95)" fill-opacity="0.25" style="mix-blend-mode:soft-light"/>
<rect x="11" y="10" width="202" height="42" rx="21" stroke="url(#paint1_linear_1_95)" stroke-width="6" style="mix-blend-mode:soft-light"/>
<path d="M32 10H192V4H32V10ZM192 52H32V58H192V52ZM32 52C20.402 52 11 42.598 11 31H5C5 45.9117 17.0883 58 32 58V52ZM213 31C213 42.598 203.598 52 192 52V58C206.912 58 219 45.9117 219 31H213ZM192 10C203.598 10 213 19.402 213 31H219C219 16.0883 206.912 4 192 4V10ZM32 4C17.0883 4 5 16.0883 5 31H11C11 19.402 20.402 10 32 10V4Z" fill="#0A0A0A" fill-opacity="0.35"/>
</g>
<g filter="url(#filter1_ddd_1_95)">
<path d="M53.7598 31.125C53.7598 29.375 54.1098 27.8167 54.8098 26.45C55.5264 25.0833 56.5431 24.025 57.8598 23.275C59.1764 22.5083 60.7264 22.125 62.5098 22.125C64.0431 22.125 65.4098 22.4167 66.6098 23C67.8264 23.5667 68.8098 24.375 69.5598 25.425C70.3264 26.475 70.8348 27.7 71.0848 29.1H65.2348C64.9681 28.5167 64.5848 28.0667 64.0848 27.75C63.6014 27.4167 63.0431 27.25 62.4098 27.25C61.4764 27.25 60.7348 27.6 60.1848 28.3C59.6514 29 59.3848 29.9417 59.3848 31.125C59.3848 32.3083 59.6514 33.25 60.1848 33.95C60.7348 34.65 61.4764 35 62.4098 35C63.0431 35 63.6014 34.8417 64.0848 34.525C64.5848 34.1917 64.9681 33.7333 65.2348 33.15H71.0848C70.8348 34.55 70.3264 35.775 69.5598 36.825C68.8098 37.875 67.8264 38.6917 66.6098 39.275C65.4098 39.8417 64.0431 40.125 62.5098 40.125C60.7264 40.125 59.1764 39.75 57.8598 39C56.5431 38.2333 55.5264 37.1667 54.8098 35.8C54.1098 34.4333 53.7598 32.875 53.7598 31.125ZM71.958 32.95C71.958 31.4667 72.208 30.1833 72.708 29.1C73.2247 28 73.9247 27.1667 74.808 26.6C75.6913 26.0167 76.683 25.725 77.783 25.725C78.6997 25.725 79.4913 25.9167 80.158 26.3C80.8247 26.6667 81.333 27.175 81.683 27.825V25.9H87.208V40H81.683V38.075C81.333 38.725 80.8247 39.2417 80.158 39.625C79.4913 39.9917 78.6997 40.175 77.783 40.175C76.683 40.175 75.6913 39.8917 74.808 39.325C73.9247 38.7417 73.2247 37.9083 72.708 36.825C72.208 35.725 71.958 34.4333 71.958 32.95ZM81.683 32.95C81.683 32.2 81.4913 31.6167 81.108 31.2C80.7247 30.7833 80.233 30.575 79.633 30.575C79.033 30.575 78.5413 30.7833 78.158 31.2C77.7747 31.6167 77.583 32.2 77.583 32.95C77.583 33.7 77.7747 34.2833 78.158 34.7C78.5413 35.1167 79.033 35.325 79.633 35.325C80.233 35.325 80.7247 35.1167 81.108 34.7C81.4913 34.2833 81.683 33.7 81.683 32.95ZM99.2002 25.8C100.817 25.8 102.075 26.3417 102.975 27.425C103.892 28.5083 104.35 29.975 104.35 31.825V40H98.8252V32.525C98.8252 31.8583 98.6419 31.3333 98.2752 30.95C97.9252 30.55 97.4502 30.35 96.8502 30.35C96.2335 30.35 95.7502 30.55 95.4002 30.95C95.0502 31.3333 94.8752 31.8583 94.8752 32.525V40H89.3252V25.9H94.8752V28.05C95.3085 27.3833 95.8835 26.8417 96.6002 26.425C97.3335 26.0083 98.2002 25.8 99.2002 25.8ZM105.632 32.95C105.632 31.4833 105.932 30.2083 106.532 29.125C107.149 28.025 107.999 27.1833 109.082 26.6C110.182 26.0167 111.432 25.725 112.832 25.725C114.665 25.725 116.207 26.2417 117.457 27.275C118.724 28.3083 119.524 29.7417 119.857 31.575H113.982C113.765 30.8417 113.34 30.475 112.707 30.475C112.257 30.475 111.899 30.6833 111.632 31.1C111.382 31.5167 111.257 32.1333 111.257 32.95C111.257 33.7667 111.382 34.3833 111.632 34.8C111.899 35.2167 112.257 35.425 112.707 35.425C113.34 35.425 113.765 35.0583 113.982 34.325H119.857C119.524 36.1583 118.724 37.5917 117.457 38.625C116.207 39.6583 114.665 40.175 112.832 40.175C111.432 40.175 110.182 39.8833 109.082 39.3C107.999 38.7167 107.149 37.8833 106.532 36.8C105.932 35.7 105.632 34.4167 105.632 32.95ZM134.891 32.825C134.891 33.2083 134.866 33.575 134.816 33.925H125.891C125.975 35.1417 126.483 35.75 127.416 35.75C128.016 35.75 128.45 35.475 128.716 34.925H134.591C134.391 35.925 133.966 36.825 133.316 37.625C132.683 38.4083 131.875 39.0333 130.891 39.5C129.925 39.95 128.858 40.175 127.691 40.175C126.291 40.175 125.041 39.8833 123.941 39.3C122.858 38.7167 122.008 37.8833 121.391 36.8C120.791 35.7 120.491 34.4167 120.491 32.95C120.491 31.4833 120.791 30.2083 121.391 29.125C122.008 28.025 122.858 27.1833 123.941 26.6C125.041 26.0167 126.291 25.725 127.691 25.725C129.091 25.725 130.333 26.0167 131.416 26.6C132.516 27.1667 133.366 27.9833 133.966 29.05C134.583 30.1167 134.891 31.375 134.891 32.825ZM129.266 31.5C129.266 31.0333 129.116 30.6833 128.816 30.45C128.516 30.2 128.141 30.075 127.691 30.075C126.708 30.075 126.133 30.55 125.966 31.5H129.266ZM141.821 21.5V40H136.271V21.5H141.821ZM143.203 32.95C143.203 31.4667 143.453 30.1833 143.953 29.1C144.47 28 145.17 27.1667 146.053 26.6C146.936 26.0167 147.928 25.725 149.028 25.725C149.945 25.725 150.736 25.9167 151.403 26.3C152.07 26.6667 152.578 27.175 152.928 27.825V25.9H158.453V40H152.928V38.075C152.578 38.725 152.07 39.2417 151.403 39.625C150.736 39.9917 149.945 40.175 149.028 40.175C147.928 40.175 146.936 39.8917 146.053 39.325C145.17 38.7417 144.47 37.9083 143.953 36.825C143.453 35.725 143.203 34.4333 143.203 32.95ZM152.928 32.95C152.928 32.2 152.736 31.6167 152.353 31.2C151.97 30.7833 151.478 30.575 150.878 30.575C150.278 30.575 149.786 30.7833 149.403 31.2C149.02 31.6167 148.828 32.2 148.828 32.95C148.828 33.7 149.02 34.2833 149.403 34.7C149.786 35.1167 150.278 35.325 150.878 35.325C151.478 35.325 151.97 35.1167 152.353 34.7C152.736 34.2833 152.928 33.7 152.928 32.95ZM166.12 28.5C166.687 27.6833 167.379 27.0333 168.195 26.55C169.012 26.05 169.862 25.8 170.745 25.8V31.725H169.17C168.12 31.725 167.345 31.9083 166.845 32.275C166.362 32.6417 166.12 33.2917 166.12 34.225V40H160.57V25.9H166.12V28.5Z" fill="white"/>
</g>
<defs>
<filter id="filter0_ddd_1_95" x="0" y="0" width="224" height="65" filterUnits="userSpaceOnUse" color-interpolation-filters="sRGB">
<feFlood flood-opacity="0" result="BackgroundImageFix"/>
<feColorMatrix in="SourceAlpha" type="matrix" values="0 0 0 0 0 0 0 0 0 0 0 0 0 0 0 0 0 0 127 0" result="hardAlpha"/>
<feOffset dy="1"/>
<feGaussianBlur stdDeviation="2.5"/>
<feColorMatrix type="matrix" values="0 0 0 0 0 0 0 0 0 0 0 0 0 0 0 0 0 0 0.2 0"/>
<feBlend mode="normal" in2="BackgroundImageFix" result="effect1_dropShadow_1_95"/>
<feColorMatrix in="SourceAlpha" type="matrix" values="0 0 0 0 0 0 0 0 0 0 0 0 0 0 0 0 0 0 127 0" result="hardAlpha"/>
<feOffset dy="3"/>
<feGaussianBlur stdDeviation="2"/>
<feColorMatrix type="matrix" values="0 0 0 0 0 0 0 0 0 0 0 0 0 0 0 0 0 0 0.12 0"/>
<feBlend mode="normal" in2="effect1_dropShadow_1_95" result="effect2_dropShadow_1_95"/>
<feColorMatrix in="SourceAlpha" type="matrix" values="0 0 0 0 0 0 0 0 0 0 0 0 0 0 0 0 0 0 127 0" result="hardAlpha"/>
<feOffset dy="2"/>
<feGaussianBlur stdDeviation="2"/>
<feColorMatrix type="matrix" values="0 0 0 0 0 0 0 0 0 0 0 0 0 0 0 0 0 0 0.14 0"/>
<feBlend mode="normal" in2="effect2_dropShadow_1_95" result="effect3_dropShadow_1_95"/>
<feBlend mode="normal" in="SourceGraphic" in2="effect3_dropShadow_1_95" result="shape"/>
</filter>
<filter id="filter1_ddd_1_95" x="48.7598" y="17.5" width="126.986" height="29.675" filterUnits="userSpaceOnUse" color-interpolation-filters="sRGB">
<feFlood flood-opacity="0" result="BackgroundImageFix"/>
<feColorMatrix in="SourceAlpha" type="matrix" values="0 0 0 0 0 0 0 0 0 0 0 0 0 0 0 0 0 0 127 0" result="hardAlpha"/>
<feOffset dy="1"/>
<feGaussianBlur stdDeviation="2.5"/>
<feColorMatrix type="matrix" values="0 0 0 0 0.532764 0 0 0 0 0.0516202 0 0 0 0 0.0516202 0 0 0 0.2 0"/>
<feBlend mode="normal" in2="BackgroundImageFix" result="effect1_dropShadow_1_95"/>
<feColorMatrix in="SourceAlpha" type="matrix" values="0 0 0 0 0 0 0 0 0 0 0 0 0 0 0 0 0 0 127 0" result="hardAlpha"/>
<feOffset dy="3"/>
<feGaussianBlur stdDeviation="2"/>
<feColorMatrix type="matrix" values="0 0 0 0 0.482764 0 0 0 0 0.0467756 0 0 0 0 0.0467756 0 0 0 0.12 0"/>
<feBlend mode="normal" in2="effect1_dropShadow_1_95" result="effect2_dropShadow_1_95"/>
<feColorMatrix in="SourceAlpha" type="matrix" values="0 0 0 0 0 0 0 0 0 0 0 0 0 0 0 0 0 0 127 0" result="hardAlpha"/>
<feOffset dy="2"/>
<feGaussianBlur stdDeviation="2"/>
<feColorMatrix type="matrix" values="0 0 0 0 0.357764 0 0 0 0 0.100254 0 0 0 0 0.100254 0 0 0 0.14 0"/>
<feBlend mode="normal" in2="effect2_dropShadow_1_95" result="effect3_dropShadow_1_95"/>
<feBlend mode="normal" in="SourceGraphic" in2="effect3_dropShadow_1_95" result="shape"/>
</filter>
<linearGradient id="paint0_linear_1_95" x1="112" y1="7" x2="112" y2="55" gradientUnits="userSpaceOnUse">
<stop/>
<stop offset="1" stop-color="white" stop-opacity="0"/>
</linearGradient>
<linearGradient id="paint1_linear_1_95" x1="112" y1="7" x2="112" y2="55" gradientUnits="userSpaceOnUse">
<stop stop-color="white"/>
<stop offset="1"/>
</linearGradient>
</defs>
</svg>
