<svg width="36" height="36" viewBox="0 0 36 36" fill="none" xmlns="http://www.w3.org/2000/svg">
<path d="M32.6464 6.31596L29.684 3.35355C28.3172 1.98672 26.1011 1.98672 24.7343 3.35355L18.3536 9.73429C18.1583 9.92955 17.8417 9.92956 17.6464 9.73429L11.2657 3.35355C9.89887 1.98672 7.68279 1.98672 6.31596 3.35355L3.35355 6.31596C1.98672 7.68279 1.98672 9.89887 3.35355 11.2657L9.73429 17.6464C9.92955 17.8417 9.92956 18.1583 9.73429 18.3536L3.35355 24.7343C1.98672 26.1011 1.98672 28.3172 3.35355 29.684L6.31596 32.6464C7.68279 34.0133 9.89887 34.0133 11.2657 32.6464L17.6464 26.2657C17.8417 26.0704 18.1583 26.0704 18.3536 26.2657L24.7343 32.6464C26.1011 34.0133 28.3172 34.0133 29.684 32.6464L32.6464 29.684C34.0133 28.3172 34.0133 26.1011 32.6464 24.7343L26.2657 18.3536C26.0704 18.1583 26.0704 17.8417 26.2657 17.6464L32.6464 11.2657C34.0133 9.89887 34.0133 7.68279 32.6464 6.31596Z" stroke="#38469E" stroke-opacity="0.7" stroke-width="3"/>
<path d="M32.6464 6.31596L29.684 3.35355C28.3172 1.98672 26.1011 1.98672 24.7343 3.35355L18.3536 9.73429C18.1583 9.92955 17.8417 9.92956 17.6464 9.73429L11.2657 3.35355C9.89887 1.98672 7.68279 1.98672 6.31596 3.35355L3.35355 6.31596C1.98672 7.68279 1.98672 9.89887 3.35355 11.2657L9.73429 17.6464C9.92955 17.8417 9.92956 18.1583 9.73429 18.3536L3.35355 24.7343C1.98672 26.1011 1.98672 28.3172 3.35355 29.684L6.31596 32.6464C7.68279 34.0133 9.89887 34.0133 11.2657 32.6464L17.6464 26.2657C17.8417 26.0704 18.1583 26.0704 18.3536 26.2657L24.7343 32.6464C26.1011 34.0133 28.3172 34.0133 29.684 32.6464L32.6464 29.684C34.0133 28.3172 34.0133 26.1011 32.6464 24.7343L26.2657 18.3536C26.0704 18.1583 26.0704 17.8417 26.2657 17.6464L32.6464 11.2657C34.0133 9.89887 34.0133 7.68279 32.6464 6.31596Z" stroke="url(#paint0_linear_202_277)" stroke-opacity="0.9" stroke-width="3" style="mix-blend-mode:overlay"/>
<path d="M31.5858 10.205C32.3668 9.424 32.3668 8.15767 31.5858 7.37662L28.6234 4.41421C27.8423 3.63317 26.576 3.63317 25.795 4.41421L19.4142 10.795C18.6332 11.576 17.3668 11.576 16.5858 10.795L10.205 4.41421C9.424 3.63316 8.15767 3.63316 7.37662 4.41421L4.41421 7.37662C3.63317 8.15767 3.63317 9.424 4.41421 10.205L10.795 16.5858C11.576 17.3668 11.576 18.6332 10.795 19.4142L4.41421 25.795C3.63316 26.576 3.63317 27.8423 4.41421 28.6234L7.37662 31.5858C8.15767 32.3668 9.424 32.3668 10.205 31.5858L16.5858 25.205C17.3668 24.424 18.6332 24.424 19.4142 25.205L25.795 31.5858C26.576 32.3668 27.8423 32.3668 28.6234 31.5858L31.5858 28.6234C32.3668 27.8423 32.3668 26.576 31.5858 25.795L25.205 19.4142C24.424 18.6332 24.424 17.3668 25.205 16.5858L31.5858 10.205Z" fill="#FF6262"/>
<path d="M31.5858 10.205C32.3668 9.424 32.3668 8.15767 31.5858 7.37662L28.6234 4.41421C27.8423 3.63317 26.576 3.63317 25.795 4.41421L19.4142 10.795C18.6332 11.576 17.3668 11.576 16.5858 10.795L10.205 4.41421C9.424 3.63316 8.15767 3.63316 7.37662 4.41421L4.41421 7.37662C3.63317 8.15767 3.63317 9.424 4.41421 10.205L10.795 16.5858C11.576 17.3668 11.576 18.6332 10.795 19.4142L4.41421 25.795C3.63316 26.576 3.63317 27.8423 4.41421 28.6234L7.37662 31.5858C8.15767 32.3668 9.424 32.3668 10.205 31.5858L16.5858 25.205C17.3668 24.424 18.6332 24.424 19.4142 25.205L25.795 31.5858C26.576 32.3668 27.8423 32.3668 28.6234 31.5858L31.5858 28.6234C32.3668 27.8423 32.3668 26.576 31.5858 25.795L25.205 19.4142C24.424 18.6332 24.424 17.3668 25.205 16.5858L31.5858 10.205Z" fill="url(#paint1_linear_202_277)" fill-opacity="0.25" style="mix-blend-mode:soft-light"/>
<path d="M27.9163 5.12132L30.8787 8.08373C31.2692 8.47425 31.2692 9.10742 30.8787 9.49794L24.4979 15.8787C23.3264 17.0503 23.3264 18.9497 24.4979 20.1213L30.8787 26.5021C31.2692 26.8926 31.2692 27.5258 30.8787 27.9163L27.9163 30.8787C27.5257 31.2692 26.8926 31.2692 26.5021 30.8787L20.1213 24.4979C18.9497 23.3264 17.0503 23.3264 15.8787 24.4979L9.49794 30.8787C9.10742 31.2692 8.47425 31.2692 8.08373 30.8787L5.12132 27.9163C4.7308 27.5257 4.7308 26.8926 5.12132 26.5021L11.5021 20.1213C12.6736 18.9497 12.6736 17.0503 11.5021 15.8787L5.12132 9.49794C4.7308 9.10742 4.7308 8.47425 5.12132 8.08373L8.08373 5.12132C8.47425 4.7308 9.10742 4.7308 9.49794 5.12132L15.8787 11.5021C17.0503 12.6736 18.9497 12.6736 20.1213 11.5021L26.5021 5.12132C26.8926 4.7308 27.5257 4.7308 27.9163 5.12132Z" stroke="url(#paint2_linear_202_277)" stroke-opacity="0.9" stroke-width="2" style="mix-blend-mode:soft-light"/>
<defs>
<linearGradient id="paint0_linear_202_277" x1="18" y1="3" x2="18" y2="33" gradientUnits="userSpaceOnUse">
<stop stop-opacity="0.2"/>
<stop offset="1" stop-opacity="0.25"/>
</linearGradient>
<linearGradient id="paint1_linear_202_277" x1="15" y1="6" x2="15" y2="30" gradientUnits="userSpaceOnUse">
<stop/>
<stop offset="1" stop-color="white" stop-opacity="0"/>
</linearGradient>
<linearGradient id="paint2_linear_202_277" x1="15" y1="6" x2="15" y2="30" gradientUnits="userSpaceOnUse">
<stop stop-color="white"/>
<stop offset="1" stop-opacity="0.7"/>
</linearGradient>
</defs>
</svg>
