<svg width="86" height="84" viewBox="0 0 86 84" fill="none" xmlns="http://www.w3.org/2000/svg">
<path d="M53.7066 15.6499C53.8763 14.6954 54.7062 14 55.6757 14H72.3241C73.2936 14 74.1236 14.6954 74.2932 15.6499L81.9999 59L83.622 77.6535C83.8252 79.9905 81.9829 82 79.637 82H48.3628C46.017 82 44.1747 79.9905 44.3779 77.6535L45.9999 59L53.7066 15.6499Z" fill="#DF8D12"/>
<path fill-rule="evenodd" clip-rule="evenodd" d="M44.0152 58.7378L51.7375 15.2999C52.0769 13.3908 53.7367 12 55.6758 12H72.3242C74.2632 12 75.923 13.3907 76.2624 15.2999L83.9847 58.7378L85.6145 77.4802C85.9193 80.9858 83.1559 84 79.637 84H48.3629C44.8441 84 42.0806 80.9858 42.3854 77.4802L44.0152 58.7378ZM55.6758 14C54.7062 14 53.8763 14.6954 53.7066 15.6499L46 59L44.3779 77.6535C44.1747 79.9905 46.017 82 48.3629 82H79.637C81.9829 82 83.8252 79.9905 83.622 77.6535L82 59L74.2933 15.6499C74.1236 14.6954 73.2937 14 72.3242 14H55.6758Z" fill="#5B3303"/>
<path d="M48.3801 82H79.6198C81.9719 82 83.8163 79.9803 83.6034 77.6379L82.3307 63.6379C82.1434 61.5775 80.4159 60 78.3471 60H49.6528C47.584 60 45.8565 61.5775 45.6692 63.6379L44.3965 77.6379C44.1836 79.9803 46.028 82 48.3801 82Z" fill="#FFB423"/>
<path d="M45.6864 63.6584L44.5 77.5L75 60H49.6718C47.5951 60 45.8638 61.5893 45.6864 63.6584Z" fill="#FFC149"/>
<path d="M57 16L50 56L71 16H57Z" fill="#E9981F"/>
<path fill-rule="evenodd" clip-rule="evenodd" d="M56.1643 15.0136C56.7091 15.1044 57.0771 15.6196 56.9863 16.1644L49.9863 58.1644C49.8955 58.7091 49.3803 59.0772 48.8355 58.9864C48.2907 58.8956 47.9227 58.3803 48.0135 57.8356L55.0135 15.8356C55.1043 15.2908 55.6195 14.9228 56.1643 15.0136Z" fill="#FFC351"/>
<path fill-rule="evenodd" clip-rule="evenodd" d="M50.6643 48.0136C51.2091 48.1044 51.5771 48.6196 51.4863 49.1644L49.9863 58.1644C49.8955 58.7091 49.3803 59.0772 48.8355 58.9864C48.2907 58.8956 47.9227 58.3803 48.0135 57.8356L49.5135 48.8356C49.6043 48.2908 50.1195 47.9228 50.6643 48.0136Z" fill="#FFD991"/>
<path fill-rule="evenodd" clip-rule="evenodd" d="M49.8402 63C49.3201 63 48.8869 63.3987 48.8437 63.917L48.4965 68.083C48.4506 68.6334 47.9673 69.0424 47.4169 68.9965C46.8665 68.9507 46.4575 68.4673 46.5034 67.917L46.8506 63.7509C46.9801 62.196 48.2799 61 49.8402 61H53.9999C54.5522 61 54.9999 61.4477 54.9999 62C54.9999 62.5523 54.5522 63 53.9999 63H49.8402Z" fill="#FFFAED"/>
<path d="M74 44.5C74 45.3284 72.8807 46 71.5 46C70.1193 46 69 45.3284 69 44.5C69 43.6716 70.1193 43 71.5 43C72.8807 43 74 43.6716 74 44.5Z" fill="#C17707"/>
<path d="M75 38C75 38.5523 74.1046 39 73 39C71.8954 39 71 38.5523 71 38C71 37.4477 71.8954 37 73 37C74.1046 37 75 37.4477 75 38Z" fill="#C17707"/>
<path d="M72 33C72 33.5523 71.1046 34 70 34C68.8954 34 68 33.5523 68 33C68 32.4477 68.8954 32 70 32C71.1046 32 72 32.4477 72 33Z" fill="#C17707"/>
<path d="M73 26.5C73 26.7761 72.5523 27 72 27C71.4477 27 71 26.7761 71 26.5C71 26.2239 71.4477 26 72 26C72.5523 26 73 26.2239 73 26.5Z" fill="#C17707"/>
<path d="M75 30.5C75 30.7761 74.5523 31 74 31C73.4477 31 73 30.7761 73 30.5C73 30.2239 73.4477 30 74 30C74.5523 30 75 30.2239 75 30.5Z" fill="#C17707"/>
<path d="M70 36.5C70 36.7761 69.5523 37 69 37C68.4477 37 68 36.7761 68 36.5C68 36.2239 68.4477 36 69 36C69.5523 36 70 36.2239 70 36.5Z" fill="#C17707"/>
<path d="M76 41.5C76 41.7761 75.5523 42 75 42C74.4477 42 74 41.7761 74 41.5C74 41.2239 74.4477 41 75 41C75.5523 41 76 41.2239 76 41.5Z" fill="#C17707"/>
<path d="M71 40.5C71 40.7761 70.5523 41 70 41C69.4477 41 69 40.7761 69 40.5C69 40.2239 69.4477 40 70 40C70.5523 40 71 40.2239 71 40.5Z" fill="#C17707"/>
<path d="M78 49C78 49.5523 77.1046 50 76 50C74.8954 50 74 49.5523 74 49C74 48.4477 74.8954 48 76 48C77.1046 48 78 48.4477 78 49Z" fill="#C17707"/>
<path d="M79 79.5C79 80.3284 78.3284 81 77.5 81C76.6716 81 76 80.3284 76 79.5C76 78.6716 76.6716 78 77.5 78C78.3284 78 79 78.6716 79 79.5Z" fill="#FFC24B"/>
<path d="M82 77C82 77.5523 81.5523 78 81 78C80.4477 78 80 77.5523 80 77C80 76.4477 80.4477 76 81 76C81.5523 76 82 76.4477 82 77Z" fill="#FFC24B"/>
<path d="M73 80C73 80.5523 73.4477 81 74 81C74.5523 81 75 80.5523 75 80C75 79.4477 74.5523 79 74 79C73.4477 79 73 79.4477 73 80Z" fill="#FFC24B"/>
<path d="M77 75C77 75.5523 77.4477 76 78 76C78.5523 76 79 75.5523 79 75C79 74.4477 78.5523 74 78 74C77.4477 74 77 74.4477 77 75Z" fill="#FFC24B"/>
<path d="M73 76.5C73 77.3284 73.6716 78 74.5 78C75.3284 78 76 77.3284 76 76.5C76 75.6716 75.3284 75 74.5 75C73.6716 75 73 75.6716 73 76.5Z" fill="#FFC24B"/>
<path d="M68 79C68 79.5523 68.4477 80 69 80C69.5523 80 70 79.5523 70 79C70 78.4477 69.5523 78 69 78C68.4477 78 68 78.4477 68 79Z" fill="#FFC24B"/>
<path d="M80 72C80 72.5523 80.4477 73 81 73C81.5523 73 82 72.5523 82 72C82 71.4477 81.5523 71 81 71C80.4477 71 80 71.4477 80 72Z" fill="#FFC24B"/>
<path d="M11.7066 15.6499C11.8763 14.6954 12.7062 14 13.6757 14H30.3241C31.2936 14 32.1236 14.6954 32.2932 15.6499L39.9999 59L41.622 77.6535C41.8252 79.9905 39.9829 82 37.637 82H6.36285C4.01696 82 2.17466 79.9905 2.37789 77.6535L3.99993 59L11.7066 15.6499Z" fill="#FCB326"/>
<path fill-rule="evenodd" clip-rule="evenodd" d="M2.01521 58.7378L9.73751 15.2999C10.0769 13.3908 11.7367 12 13.6758 12H30.3242C32.2632 12 33.923 13.3907 34.2624 15.2999L41.9847 58.7378L43.6145 77.4802C43.9193 80.9858 41.1559 84 37.637 84H6.36287C2.84405 84 0.0805983 80.9858 0.385433 77.4802L2.01521 58.7378ZM13.6758 14C12.7062 14 11.8763 14.6954 11.7066 15.6499L3.99996 59L2.37791 77.6535C2.17469 79.9905 4.01699 82 6.36287 82H37.637C39.9829 82 41.8252 79.9905 41.622 77.6535L40 59L32.2933 15.6499C32.1236 14.6954 31.2937 14 30.3242 14H13.6758Z" fill="#5B3303"/>
<path d="M6.38009 82H37.6198C39.9719 82 41.8163 79.9803 41.6034 77.6379L40.3307 63.6379C40.1434 61.5775 38.4159 60 36.3471 60H7.65281C5.584 60 3.85654 61.5775 3.66924 63.6379L2.39651 77.6379C2.18356 79.9803 4.02796 82 6.38009 82Z" fill="#FFB423"/>
<path d="M15 16L8 56L29 16H15Z" fill="#FFC555"/>
<path fill-rule="evenodd" clip-rule="evenodd" d="M14.1643 15.0136C14.7091 15.1044 15.0771 15.6196 14.9863 16.1644L7.98631 58.1644C7.89551 58.7091 7.38028 59.0772 6.83551 58.9864C6.29074 58.8956 5.92272 58.3803 6.01352 57.8356L13.0135 15.8356C13.1043 15.2908 13.6195 14.9228 14.1643 15.0136Z" fill="#FFD179"/>
<path fill-rule="evenodd" clip-rule="evenodd" d="M8.66431 48.0136C9.20908 48.1044 9.5771 48.6196 9.48631 49.1644L7.98631 58.1644C7.89551 58.7091 7.38028 59.0772 6.83551 58.9864C6.29074 58.8956 5.92272 58.3803 6.01352 57.8356L7.51352 48.8356C7.60431 48.2908 8.11954 47.9228 8.66431 48.0136Z" fill="#FFECC9"/>
<path d="M3.68642 63.6584L2.5 77.5L33 60H7.67181C5.59509 60 3.86378 61.5893 3.68642 63.6584Z" fill="#FFC149"/>
<path fill-rule="evenodd" clip-rule="evenodd" d="M7.81574 63C7.30077 63 6.87 63.3911 6.82039 63.9037L5.4953 77.5963C5.4421 78.146 4.95334 78.5485 4.40362 78.4953C3.85391 78.4422 3.4514 77.9534 3.5046 77.4037L4.82969 63.711C4.97851 62.1733 6.27082 61 7.81574 61H34.9999C35.5522 61 36 61.4477 36 62C36 62.5523 35.5522 63 34.9999 63H7.81574Z" fill="#FFE4A0"/>
<path fill-rule="evenodd" clip-rule="evenodd" d="M7.84021 63C7.32012 63 6.88686 63.3987 6.84366 63.917L6.49648 68.083C6.45061 68.6334 5.96726 69.0424 5.41689 68.9965C4.86651 68.9507 4.45752 68.4673 4.50339 67.917L4.85057 63.7509C4.98015 62.196 6.27995 61 7.84021 61H11.9999C12.5522 61 12.9999 61.4477 12.9999 62C12.9999 62.5523 12.5522 63 11.9999 63H7.84021Z" fill="#FFFAED"/>
<path d="M37 79.5C37 80.3284 36.3284 81 35.5 81C34.6716 81 34 80.3284 34 79.5C34 78.6716 34.6716 78 35.5 78C36.3284 78 37 78.6716 37 79.5Z" fill="#FFC24B"/>
<path d="M40 77C40 77.5523 39.5523 78 39 78C38.4477 78 38 77.5523 38 77C38 76.4477 38.4477 76 39 76C39.5523 76 40 76.4477 40 77Z" fill="#FFC24B"/>
<path d="M31 80C31 80.5523 31.4477 81 32 81C32.5523 81 33 80.5523 33 80C33 79.4477 32.5523 79 32 79C31.4477 79 31 79.4477 31 80Z" fill="#FFC24B"/>
<path d="M35 75C35 75.5523 35.4477 76 36 76C36.5523 76 37 75.5523 37 75C37 74.4477 36.5523 74 36 74C35.4477 74 35 74.4477 35 75Z" fill="#FFC24B"/>
<path d="M31 76.5C31 77.3284 31.6716 78 32.5 78C33.3284 78 34 77.3284 34 76.5C34 75.6716 33.3284 75 32.5 75C31.6716 75 31 75.6716 31 76.5Z" fill="#FFC24B"/>
<path d="M26 79C26 79.5523 26.4477 80 27 80C27.5523 80 28 79.5523 28 79C28 78.4477 27.5523 78 27 78C26.4477 78 26 78.4477 26 79Z" fill="#FFC24B"/>
<path d="M38 72C38 72.5523 38.4477 73 39 73C39.5523 73 40 72.5523 40 72C40 71.4477 39.5523 71 39 71C38.4477 71 38 71.4477 38 72Z" fill="#FFC24B"/>
<path d="M33.7066 3.64993C33.8763 2.69538 34.7062 2 35.6757 2H52.3241C53.2936 2 54.1236 2.69538 54.2932 3.64993L61.9999 47L63.622 65.6535C63.8252 67.9905 61.9829 70 59.637 70H28.3628C26.017 70 24.1747 67.9905 24.3779 65.6535L25.9999 47L33.7066 3.64993Z" fill="#FCB326"/>
<path fill-rule="evenodd" clip-rule="evenodd" d="M24.0152 46.7378L31.7375 3.29987C32.0769 1.39075 33.7367 0 35.6758 0H52.3242C54.2632 0 55.923 1.39075 56.2624 3.29987L63.9847 46.7378L65.6145 65.4802C65.9193 68.9858 63.1559 72 59.637 72H28.3629C24.8441 72 22.0806 68.9858 22.3854 65.4802L24.0152 46.7378ZM35.6758 2C34.7062 2 33.8763 2.69538 33.7066 3.64993L26 47L24.3779 65.6535C24.1747 67.9905 26.017 70 28.3629 70H59.637C61.9829 70 63.8252 67.9905 63.622 65.6535L62 47L54.2933 3.64993C54.1236 2.69537 53.2937 2 52.3242 2H35.6758Z" fill="#5B3303"/>
<path d="M28.3801 70H59.6198C61.9719 70 63.8163 67.9803 63.6034 65.6379L62.3307 51.6379C62.1434 49.5775 60.4159 48 58.3471 48H29.6528C27.584 48 25.8565 49.5775 25.6692 51.6379L24.3965 65.6379C24.1836 67.9803 26.028 70 28.3801 70Z" fill="#FFCF23"/>
<path d="M37 4L30 44L51 4H37Z" fill="#FFC555"/>
<path fill-rule="evenodd" clip-rule="evenodd" d="M36.1643 3.01358C36.7091 3.10437 37.0771 3.6196 36.9863 4.16437L29.9863 46.1644C29.8955 46.7091 29.3803 47.0772 28.8355 46.9864C28.2907 46.8956 27.9227 46.3803 28.0135 45.8356L35.0135 3.83557C35.1043 3.2908 35.6195 2.92278 36.1643 3.01358Z" fill="#FFD179"/>
<path fill-rule="evenodd" clip-rule="evenodd" d="M30.6643 36.0136C31.2091 36.1044 31.5771 36.6196 31.4863 37.1644L29.9863 46.1644C29.8955 46.7091 29.3803 47.0772 28.8355 46.9864C28.2907 46.8956 27.9227 46.3803 28.0135 45.8356L29.5135 36.8356C29.6043 36.2908 30.1195 35.9228 30.6643 36.0136Z" fill="#FFECC9"/>
<path d="M25.6864 51.6584L24.5 65.5L55 48H29.6718C27.5951 48 25.8638 49.5893 25.6864 51.6584Z" fill="#FFDD65"/>
<path fill-rule="evenodd" clip-rule="evenodd" d="M29.8157 51C29.3008 51 28.87 51.3911 28.8204 51.9037L27.4953 65.5963C27.4421 66.146 26.9533 66.5485 26.4036 66.4953C25.8539 66.4422 25.4514 65.9534 25.5046 65.4037L26.8297 51.711C26.9785 50.1733 28.2708 49 29.8157 49H56.9999C57.5522 49 58 49.4477 58 50C58 50.5523 57.5522 51 56.9999 51H29.8157Z" fill="#FFF5A0"/>
<path fill-rule="evenodd" clip-rule="evenodd" d="M29.8402 51C29.3201 51 28.8869 51.3987 28.8437 51.917L28.4965 56.083C28.4506 56.6334 27.9673 57.0424 27.4169 56.9965C26.8665 56.9507 26.4575 56.4673 26.5034 55.917L26.8506 51.7509C26.9801 50.196 28.2799 49 29.8402 49H33.9999C34.5522 49 34.9999 49.4477 34.9999 50C34.9999 50.5523 34.5522 51 33.9999 51H29.8402Z" fill="#FFFAED"/>
<path d="M54 32.5C54 33.3284 52.8807 34 51.5 34C50.1193 34 49 33.3284 49 32.5C49 31.6716 50.1193 31 51.5 31C52.8807 31 54 31.6716 54 32.5Z" fill="#C48714"/>
<path d="M55 26C55 26.5523 54.1046 27 53 27C51.8954 27 51 26.5523 51 26C51 25.4477 51.8954 25 53 25C54.1046 25 55 25.4477 55 26Z" fill="#C48714"/>
<path d="M52 21C52 21.5523 51.1046 22 50 22C48.8954 22 48 21.5523 48 21C48 20.4477 48.8954 20 50 20C51.1046 20 52 20.4477 52 21Z" fill="#C48714"/>
<path d="M53 14.5C53 14.7761 52.5523 15 52 15C51.4477 15 51 14.7761 51 14.5C51 14.2239 51.4477 14 52 14C52.5523 14 53 14.2239 53 14.5Z" fill="#C48714"/>
<path d="M55 18.5C55 18.7761 54.5523 19 54 19C53.4477 19 53 18.7761 53 18.5C53 18.2239 53.4477 18 54 18C54.5523 18 55 18.2239 55 18.5Z" fill="#C48714"/>
<path d="M50 24.5C50 24.7761 49.5523 25 49 25C48.4477 25 48 24.7761 48 24.5C48 24.2239 48.4477 24 49 24C49.5523 24 50 24.2239 50 24.5Z" fill="#C48714"/>
<path d="M56 29.5C56 29.7761 55.5523 30 55 30C54.4477 30 54 29.7761 54 29.5C54 29.2239 54.4477 29 55 29C55.5523 29 56 29.2239 56 29.5Z" fill="#C48714"/>
<path d="M51 28.5C51 28.7761 50.5523 29 50 29C49.4477 29 49 28.7761 49 28.5C49 28.2239 49.4477 28 50 28C50.5523 28 51 28.2239 51 28.5Z" fill="#C48714"/>
<path d="M58 37C58 37.5523 57.1046 38 56 38C54.8954 38 54 37.5523 54 37C54 36.4477 54.8954 36 56 36C57.1046 36 58 36.4477 58 37Z" fill="#C48714"/>
<path d="M59 67.5C59 68.3284 58.3284 69 57.5 69C56.6716 69 56 68.3284 56 67.5C56 66.6716 56.6716 66 57.5 66C58.3284 66 59 66.6716 59 67.5Z" fill="#FFDC81"/>
<path d="M62 65C62 65.5523 61.5523 66 61 66C60.4477 66 60 65.5523 60 65C60 64.4477 60.4477 64 61 64C61.5523 64 62 64.4477 62 65Z" fill="#FFDC81"/>
<path d="M53 68C53 68.5523 53.4477 69 54 69C54.5523 69 55 68.5523 55 68C55 67.4477 54.5523 67 54 67C53.4477 67 53 67.4477 53 68Z" fill="#FFDC81"/>
<path d="M57 63C57 63.5523 57.4477 64 58 64C58.5523 64 59 63.5523 59 63C59 62.4477 58.5523 62 58 62C57.4477 62 57 62.4477 57 63Z" fill="#FFDC81"/>
<path d="M53 64.5C53 65.3284 53.6716 66 54.5 66C55.3284 66 56 65.3284 56 64.5C56 63.6716 55.3284 63 54.5 63C53.6716 63 53 63.6716 53 64.5Z" fill="#FFDC81"/>
<path d="M48 67C48 67.5523 48.4477 68 49 68C49.5523 68 50 67.5523 50 67C50 66.4477 49.5523 66 49 66C48.4477 66 48 66.4477 48 67Z" fill="#FFDC81"/>
<path d="M60 60C60 60.5523 60.4477 61 61 61C61.5523 61 62 60.5523 62 60C62 59.4477 61.5523 59 61 59C60.4477 59 60 59.4477 60 60Z" fill="#FFDC81"/>
</svg>
